<svg width="19" height="19" viewBox="0 0 19 19" fill="none" xmlns="http://www.w3.org/2000/svg">
<path d="M10.8425 10.051L11.1996 7.93675H9.12821L8.77107 10.051H10.8425Z" fill="#202630"/>
<path fill-rule="evenodd" clip-rule="evenodd" d="M18.9854 9.02246C18.9854 13.9881 14.9638 18.0146 10 18.0225H2L4.14884 15.8736C2.21296 14.2228 0.985352 11.766 0.985352 9.02246C0.985352 4.0519 5.01479 0.0224609 9.98535 0.0224609C14.9559 0.0224609 18.9854 4.0519 18.9854 9.02246ZM14.4854 6.10818V7.93675H13.0854L12.7282 10.051H13.9854V11.8796H12.4139L12.0425 14.0225H10.1568L10.5282 11.8796H8.45678L8.08535 14.0225H6.19964L6.57107 11.8796H5.48535V10.051H6.88535L7.24249 7.93675H5.98535V6.10818H7.55678L7.91392 4.02246H9.79964L9.44249 6.10818H11.5139L11.8711 4.02246H13.7568L13.3996 6.10818H14.4854Z" fill="#202630"/>
</svg>
